<svg viewBox="0 0 128 128" fill="none" xmlns="http://www.w3.org/2000/svg">
	<g clip-path="url(#clip0_1081_271)">
		<path
			d="M107.383 19.8599C96.2518 3.92913 74.2689 -0.792559 58.3747 9.3338L30.4599 27.1258C26.6889 29.4981 23.4544 32.6312 20.9631 36.3248C18.4719 40.0183 16.7786 44.191 15.9917 48.5761C14.66 55.9628 15.8304 63.5826 19.3174 70.2291C16.928 73.8538 15.2983 77.9253 14.5268 82.1976C13.7316 86.6711 13.8377 91.2583 14.8388 95.6902C15.84 100.122 17.716 104.31 20.3569 108.007C31.4896 123.939 53.4726 128.659 69.3648 118.533L97.2796 100.741C101.051 98.3693 104.286 95.2362 106.777 91.5426C109.268 87.8489 110.961 83.676 111.748 79.2907C113.079 71.9042 111.91 64.2846 108.424 57.6373C110.813 54.0127 112.442 49.9413 113.213 45.6693C114.008 41.1958 113.903 36.6085 112.902 32.1765C111.901 27.7444 110.024 23.557 107.383 19.8599"
			fill="currentColor"
		/>
		<path
			d="M55.645 109.522C46.6443 111.863 37.1397 108.34 31.8387 100.699C30.2497 98.4745 29.121 95.9555 28.5186 93.2894C27.9163 90.6233 27.8525 87.8637 28.331 85.1726C28.4931 84.289 28.7161 83.4177 28.9984 82.5649L29.5244 80.9617L30.9547 82.0124C34.2586 84.4399 37.9527 86.2855 41.8778 87.4697L42.9153 87.7845L42.8198 88.8205C42.693 90.2939 43.0919 91.7647 43.9458 92.9722C44.7246 94.0959 45.8296 94.9536 47.1114 95.4293C48.3932 95.9051 49.7901 95.976 51.1135 95.6324C51.7205 95.4702 52.299 95.216 52.8289 94.8785L80.7523 77.0843C81.4356 76.654 82.0218 76.0862 82.4735 75.417C82.9252 74.7477 83.2325 73.9917 83.3759 73.1971C83.5192 72.386 83.4996 71.5544 83.3181 70.751C83.1366 69.9476 82.797 69.1883 82.3189 68.5175C81.5396 67.3935 80.4343 66.5356 79.1521 66.0596C77.8699 65.5837 76.4725 65.5125 75.1485 65.8557C74.5426 66.0179 73.965 66.2719 73.4358 66.6088L62.78 73.4013C61.0279 74.5153 59.1158 75.355 57.11 75.8913C48.1096 78.2317 38.6047 74.7084 33.3044 67.067C31.7154 64.8431 30.5865 62.3242 29.9841 59.6581C29.3817 56.992 29.3179 54.2325 29.7963 51.5414C30.2696 48.9037 31.2882 46.3938 32.787 44.1722C34.2857 41.9506 36.2316 40.0664 38.5002 38.6398L66.4213 20.8436C68.1742 19.7278 70.0877 18.8872 72.0952 18.3509C81.0956 16.0105 90.6005 19.5337 95.9007 27.1748C97.4898 29.3988 98.6186 31.9177 99.221 34.5839C99.8234 37.25 99.8872 40.0096 99.4088 42.7007C99.246 43.584 99.023 44.4552 98.7414 45.308L98.2154 46.9117L96.7856 45.8624C93.482 43.4336 89.7876 41.5871 85.862 40.4028L84.8241 40.0876L84.92 39.052C85.0458 37.5787 84.647 36.1083 83.794 34.9004C83.0152 33.7765 81.9102 32.9188 80.6283 32.4431C79.3464 31.9674 77.9494 31.8965 76.6259 32.2401C76.0191 32.4023 75.4407 32.6566 74.9109 32.994L46.9875 50.7891C46.3042 51.2189 45.7181 51.7866 45.2666 52.4557C44.8152 53.1249 44.5082 53.8809 44.3654 54.6754C44.2214 55.4865 44.2405 56.3182 44.4217 57.1217C44.6029 57.9253 44.9426 58.6847 45.4209 59.3554C46.2002 60.4794 47.3055 61.3373 48.5877 61.8133C49.8699 62.2893 51.2673 62.3605 52.5913 62.0172C53.198 61.8547 53.7763 61.6005 54.3063 61.2633L64.9602 54.4736C66.7116 53.358 68.6237 52.5174 70.6298 51.9813C79.6302 49.6413 89.1352 53.1645 94.4358 60.8059C96.0247 63.0298 97.1535 65.5487 97.7558 68.2147C98.3582 70.8807 98.422 73.6401 97.9435 76.3311C97.4699 78.9691 96.4513 81.4792 94.9525 83.7011C93.4538 85.923 91.5081 87.8078 89.2396 89.235L61.3185 107.03C59.5656 108.145 57.6521 108.986 55.6447 109.522"
			fill="white"
		/>
	</g>
	<defs>
		<clipPath id="clip0_1081_271">
			<rect
				width="99.7403"
				height="120"
				fill="white"
				transform="translate(14 4)"
			/>
		</clipPath>
	</defs>
</svg>
